<?xml version='1.0' encoding='utf-8'?>
<svg xmlns="http://www.w3.org/2000/svg" width="1275px" height="911px" version="1.1" viewBox="-99 594 1275 911"> <g fill="#74bad7"> <path d="m-99.001 593.35c-0.17151 0-0.33598 0.06814-0.45726 0.18939s-0.18941 0.28575-0.18941 0.45725l1e-3 911c0 0.3572 0.28953 0.6466 0.64667 0.6466l1275 1e-3c0.1715 0 0.336-0.0681 0.4573-0.1893 0.1212-0.1213 0.1893-0.2858 0.1893-0.4573l-1e-3 -911c0-0.3571-0.2894-0.64667-0.6466-0.64667l-1275-9.7e-4z"/> </g> <g> <g fill-opacity=".36078"> <path d="m1008.3 1379.4-4.323 1.1459q-13.66 1.5391-50.707 2.8043-18.523 0.6326-42.893 1.1965-8.5308 0.325-86.264 1.5385-66.738 0.922-144.01 1.3568-38.636 0.2173-79.906 0.3128-105.48 0.1323-129.73 0.0125-86.312-0.2435-157.26-0.9042-85.328-0.9169-97.786-1.2254-29.715-0.4867-55.589-1.0778-115.54-2.8589-95.96-5.9428 8.6052-1.5353 42.603-2.8323 16.999-0.6486 40.346-1.2377 8.0821-0.3385 83.572-1.6199 125.46-1.8916 304.34-1.972 89.44 0.0403 165.52 0.5334 38.042 0.2466 72.746 0.6064 83.837 0.9983 96.598 1.3337 59.39 1.0592 93.388 2.3562 36.943 1.6737 36.713 2.0797 7.4766 0.7381 8.605 1.5354"/> </g> <g fill-opacity=".99608"> <path d="m193.22 980.25v8.6e-4 -1.2e-4 -7.4e-4z"/> <path d="m272.86 1431.6v0.0013 9e-4 -0.0022z"/> </g> <g fill="#fdfeff" fill-opacity=".99608"> <path d="m200.48 753.26 455.19 0.0015q2e-4 311.35 2e-4 622.71-227.6 4e-4 -455.19 1e-3 1e-5 -311.36 1e-5 -622.71z"/> </g> <g fill="#fff" fill-opacity=".99608"> <path d="m228.57 1069.7-2.1e-4 3e-4v0.0013l2.1e-4 -0.0016z"/> </g> <g fill="#d9dad9"> <path d="m225.61 774.6 408.84 0.00126q1e-4 198.82 5e-5 397.63-204.42 8e-4 -408.84 9e-4 0-198.82 3e-5 -397.64z"/> </g> <g fill="#fefefe"> <path d="m240.79 789.95 378.6 0.0014q1e-4 159.73 1.4e-4 319.46-189.3 2e-4 -378.6 0.0013 0-159.73 6e-5 -319.46z"/> </g> <g fill="#fff"> <path d="m469.61 1109.4 0.00244 1e-3 -0.01514 7e-4 -0.00903-6e-4 0.02173 1e-3 0.01362 1e-3 -0.0093-2e-3 0.01045 1e-3 -0.01477-0.0021z"/> <path d="m441.28 1109.4-0.0738 1e-3v6e-4q-1.4534-0.0016-2.9073-0.0016 1.4802 0 2.9708 0z"/> <path d="m454.14 1109.4v0.0011q-0.1057-1e-3 -0.2113-1e-3 0.0951-1e-4 0.2008-1e-4z"/> <path d="m454.14 1109.4q-1.3339 0.0011-2.6685 0.0011-0.11115 0-0.22248 0-5.0211 0-10.034 0-0.41956 0-0.83692 0-0.18878 0-0.37622 0l-0.01049 6e-4q-0.35352-0.0016-0.70844-0.0016l-0.0152 0.0016q-12.029-0.0017-24.07-0.0017l-2.7181 0.0012q0.91193 1.7348 2.1633 2.9709 0.02722 0.0247 0.05426 0.0497c0.32813 0.2043 1.1618 0.2913 2.2988 0.2913 2.9607 0 7.9773-0.5902 11.288-1.234l-0.00934-0.3263 27.095-1.7136c0.20082-0.0122 0.39392-0.0248 0.57984-0.037l-0.00775 0.0011q0.01183-0.0022 0.02393-0.0022-0.011 0-0.02326 0l-0.01154 1e-4v0.0011-0.0011l-0.00104 0.0011 0.00104-0.0011v0.0011l-9e-4 -0.0011q-0.00636 0-0.01228 0l-0.0105 1e-3v-1e-3l-0.00659 1e-3q0.01459-1e-3 0.02867-1e-3v0.0011q-0.28606-0.0011-0.57097-0.0011l-0.01063 1e-3 -0.52672 6e-4q-0.15345-0.0016-0.30731-0.0016l0.01043 1e-3q0.41095-1e-3 0.82416-1e-3v1e-3l0.06097-0.0011 0.01062 0.0011q0.1839-0.0011 0.36652-0.0011l0.05975 0.0011q0.02398-1e-3 0.05231-1e-3v1e-3q-0.33838-0.0021-0.6767-0.0021-0.08863 0-0.17718 0l0.00537 0.0011q0.36078-0.0011 0.7215-1e-4l-0.3288 0.0011-0.03302-0.0011v0.0011q-0.29456-0.0011-0.59296-0.0011-0.19757 0-0.39001 0v0.0011q-0.0415-0.0011-0.08313-0.0011 0.3429-1e-3 0.6958-1e-3l0.00525 0.0011q-0.44685-0.0012-0.8938-0.0012l-0.01135 0.0012v-0.0012zm0.28924 0.0011v0.0011q0.04261-0.0011 0.08503-1e-3v1e-3q-0.14893-1e-3 -0.29737-1e-3 0.01044-1e-4 0.0251-1e-4l0.01024 0.0011-9.1e-4 -0.0011 0.0094 0.0011q0.07849-0.0011 0.15789-0.0011z"/> <path d="m460.27 1109c-0.3587 0.0742-1.4728 0.1985-4.2922 0.3834q3.8685 0 7.7363 0l5.8532 0.0011v-0.0011l-1.8e-4 0.0011q-2.098-1e-3 -4.1959-1e-3l-0.83912 1e-3q-2.3822-0.0011-4.7638-0.0011l-0.61315 0.0011q2.6858-1e-4 5.3718-1e-3 1.5706 9e-4 3.1308 9e-4 0.9602 0 1.9202 1e-4l-0.01068-0.0011 0.01068 0.0011c0.00354-0.0011 0.00666-0.0011 0.00989-1e-3l0.01025 1e-3 0.0055-0.0011-0.02588 0.0011c-6.1523-0.1643-8.5087-0.301-9.2971-0.3845z"/> </g> <g fill="#91959b"> <path d="m378.97 1109.4q-4.753 0-9.5062 0.0011l9.5159-0.0011z"/> <path d="m369.4 1109.4q-2.2518 0-4.5036 0.0011l4.5136-0.0011z"/> <path d="m369.41 1109.4v0.0011-0.0011q0.0047 0 0.00958 0z"/> </g> <g fill="#d9dad9"> <path d="m227.34 1135.3 401.42 6e-4 4e-5 -27.539-401.42 9e-4v27.537z"/> </g> <g fill="#c9d6de" fill-opacity=".4"> <path d="m225.08 1178 377.68 0.0566-0.0075 50.701-377.68-0.0535 0.00711-50.704z"/> <path d="m225.08 1246.1 377.67 0.0012 6e-5 50.757-377.67 0.0013-3e-5 -50.76z"/> <path d="m225.08 1314.3 377.68 0.0559-0.0073 50.702-377.68-0.0535 0.00716-50.704z"/> </g> <g fill="#ffc94d"> <path d="m260.52 1203.9-0.1446 2.1473q-1.027 6.4887-6.0094 10.379-5.017 3.8871-11.816 3.1524-6.4888-1.0268-10.379-6.0092-1.2465-1.6109-2.0534-3.5104l-0.67817-1.9524q-0.55899-2.0153-0.56517-4.2064 0.16959-6.7237 4.6343-11.188 4.4648-4.4651 11.189-4.6341 6.7236 0.169 11.188 4.6341 4.4647 4.4647 4.6344 11.188z"/> </g> <g fill="#d63b1e"> <path d="m261.08 1273.8-0.14454 2.1473q-0.45656 2.8838-1.6942 5.2539l-0.66766 1.1536q-0.71674 1.1208-1.6283 2.1136-0.91204 0.993-2.0194 1.8572-0.50235 0.575-3.5426 2.0783-1.2466 0.5214-2.5816 0.8144-2.6699 0.5866-5.6914 0.26-2.884-0.4563-5.2546-1.6942-1.1852-0.6186-2.2422-1.4327-0.6087-0.2852-2.8822-2.8826-3.8602-5.3575-3.2062-11.135 0.28773-2.8763 1.4234-5.3074 0.56799-1.2151 1.3481-2.3183 0.2702-0.6344 2.7924-3.0353 4.1918-3.5444 10.168-3.6953 2.9884 0.0752 5.5304 0.9991 0.70545 0.0989 3.5623 1.8631 1.1035 0.78 2.0957 1.7722 1.9844 1.9843 3.1203 4.4145 0.56793 1.2157 0.92376 2.5428 0.70417 3.4144 0.59047 4.2312z"/> </g> <g fill="#73c058"> <path d="m260.58 1338.8-0.14453 2.1467q-0.73083 4.0306-2.3619 6.4078-1.3619 2.1723-3.7906 4.1108-4.6997 3.5273-11.006 3.0741-6.5624-0.7497-10.562-5.5221-0.32574-0.2249-1.2866-1.7447l-0.69049-1.2058q-0.63515-1.211-1.0471-2.443-0.82385-2.4644-0.75609-5.0114 0.22043-6.6005 4.6435-10.96 4.5877-4.5823 11.178-4.6755 3.39 0.1288 5.95 1.1254 3.6657 1.7197 5.2381 3.5096 4.4072 4.3266 4.6347 11.188z"/> </g> <g fill="#ed3533"> <path d="m277.03 1124.1c-3.9678 0-7.6538 1.9352-9.8696 5.1748l-0.45691 0.5811-0.30567-0.3899c-2.1904-3.3581-5.8831-5.3649-9.8916-5.3649-6.8398 0-11.803 4.9651-11.803 11.802 0 10.097 18.279 24.978 19.612 26.05 0.62922 0.6019 1.4528 0.933 2.3267 0.933 0.87297 0 1.6966-0.3294 2.327-0.934 1.3364-1.0787 19.863-16.194 19.863-26.049 0.00122-6.8391-4.9624-11.804-11.801-11.804z"/> </g> <g fill="#fbc1a8"> <path d="m352.96 1145.1c-1.9e-4 -1.9948-1.0989-2.928-2.1705-3.3843 0.83929-0.7329 1.3709-1.8117 1.3709-3.0113 0-2.204-1.7927-3.9973-3.9972-3.9973l-11.484 3e-4 0.58271-2.7267c0.77758-3.6365 0.26684-7.7672 0.09259-8.9465-0.41419-2.7928-2.8835-5.9148-5.569-5.9148l-0.1911 2e-4c-1.2758-2e-4 -3.4166 0.7263-3.4166 5.5951 0 11.848-5.3459 11.992-5.596 11.992v6e-4l-0.79944-6e-4v-1.5989l-12.791 7e-4v30.377l12.791 1e-3v-1.5997l22.384 0.0015c2.2042-9e-4 3.9971-1.7939 3.9972-3.9978-1.4e-4 -0.9307-0.31953-1.7872-0.85445-2.4682 1.8498-0.3488 3.2528-1.9772 3.2528-3.9274 0-0.9301-0.31976-1.7872-0.85443-2.4672 1.8498-0.3495 3.2528-1.9779 3.2528-3.9276zm-42.37 16.787v-27.18l9.5933 9e-4v27.18l-9.5933 6e-4z"/> </g> <g fill="#fff" fill-opacity=".99608"> <path d="m307.84 1132.5 8.4841 3e-4 8.4839 5e-4q0 15.603 0 31.206-8.4839-5e-4 -16.968-5e-4 0-15.603 0-31.207z"/> </g> <g fill="#bb1c93"> <path d="m393.97 1151.4c-1.2686 0-2.4504 0.369-3.4465 1.0031l-10.056-7.0208c0.16169-0.5636 0.2497-1.158 0.2497-1.7735 0-0.6153-0.08801-1.2096-0.2497-1.7732l9.7846-6.8312c1.0499 0.7454 2.332 1.1856 3.7178 1.1856 3.551 0 6.4298-2.8788 6.4298-6.4293 0-3.5513-2.8787-6.4301-6.4296-6.4301-3.551 0-6.4296 2.8788-6.4296 6.4301 0 0.4686 0.05139 0.9251 0.14697 1.3661l-10.033 7.0046c-0.97937-0.6033-2.132-0.9523-3.3666-0.9523-3.551 0-6.4297 2.8787-6.4297 6.4297 0 3.5515 2.8786 6.4301 6.4297 6.4301 1.2346 0 2.3873-0.3489 3.3666-0.9524l10.111 7.0589c-0.14538 0.5374-0.22443 1.1012-0.22443 1.6845 0 3.5508 2.8786 6.4294 6.4296 6.4294 3.5509 0 6.4296-2.8786 6.4296-6.4294 0-3.5509-2.8787-6.4299-6.4296-6.4299z"/> </g> <g fill="#03a9f4"> <path d="m619.57 786.29-379.63 5e-4 -6e-5 322.01 379.64 6e-4 -0.0061-322.01z"/> </g> <g fill="#bae4ff"> <path d="m239.94 1067.4v9.2226l379.64-0.0016 6e-3 -9.219-379.65-2e-3z"/> </g> <g fill="#bae4ff" fill-opacity=".56471"> <path d="m319.73 1074.3-0.19397 2.8851q0.01081 1.0763-1.5106 5.4241-0.70044 1.6789-1.6629 3.1854-1.9255 3.0124-4.9012 5.3357-1.4979 1.1609-3.1142 2.0147-4.1441 1.8667-5.115 1.8722-3.587 0.7881-7.6472 0.349-4.6929-0.996-5.4246-1.5105-1.6788-0.7003-3.1852-1.6629-3.0128-1.9255-5.336-4.901-5.1869-7.1987-4.3079-14.962 0.38635-3.8653 1.9126-7.1313 0.76319-1.6328 1.8112-3.116 0.36316-0.8518 3.752-4.0778 5.6323-4.7626 13.663-4.9653 4.888 0.3761 5.6856 0.7933 1.783 0.478 3.4157 1.2412 3.2659 1.526 5.9321 4.1925 2.6663 2.6664 4.1924 5.932 0.76295 1.6327 1.2411 3.4155 0.4173 0.7977 0.79333 5.6857"/> </g> <g fill="#bae4ff"> <path d="m306.11 1071.9-0.06917 1.0285q-0.49176 3.1071-2.878 4.9707-2.4027 1.8614-5.6585 1.5096-3.1075-0.4918-4.9706-2.8779-0.597-0.7714-0.98353-1.6809l-0.32477-0.9354q-0.2677-0.9649-0.27075-2.0146 0.08125-3.2197 2.2194-5.3579 2.1384-2.1382 5.3586-2.2195 3.22 0.0813 5.358 2.2195 2.1382 2.1382 2.2194 5.3579"/> </g> <g fill="#bfcdd6" fill-opacity=".99608"> <path d="m354.99 1002.6v3.6e-4 4.9e-4 -4.9e-4 -3.6e-4 3.6e-4 4.9e-4q0-4.9e-4 0-8.5e-4"/> </g> <g fill="#fff" fill-opacity=".99608"> <path d="m405.88 915.51v3.7e-4l56.855 28.44q-28.432 14.21-56.865 28.42l0.0097-56.86"/> </g> <g> <path d="m706.05 1101.8v0.0016-0.0015c-0.0055 0.4223-0.3528 0.7603-0.77537 0.7541-0.42203-5e-3 -0.76007-0.3522-0.75503-0.7745v0.0018-0.0022c0.00577-0.4225 0.3525-0.7606 0.77493-0.7559 0.42237 0.0063 0.76077 0.3533 0.75547 0.7766z"/> </g> <g fill="#220601"> <path d="m815.17 1332.7-7.5025 23.309q-1.7478 3.6719-3.7474 6.1313-0.54714 0.9521-6.848 7.115-1.2096 1.309-1.7776 2.2331-1.5854 2.4267 0.73136 3.4082 3.296 1.1666 8.4237-0.3313 4.7358-1.4602 8.5301-4.8494 6.4475-5.3308 16.558-24.622-5.5898-6.4623-8.2884-8.7591-2.6069-2.2959-6.078-3.634"/> <path d="m763.65 1363.9-14.816 4.1307-6.834 0.8507q-5.5219-1.0172-7.7879-1.1711-2.8731-0.2305-4.5569 0.1635-4.1406 1.2003-3.0082 4.3715 1.3726 3.4636 12.894 5.3929 7.0718 1.1821 14.773 1.5431 5.515 0.2593 9.9543-0.5348 2.3548-3.9598 2.1702-6.6674-0.01365-2.526-2.7865-8.0767"/> </g> <g fill="#ff9b77"> <path d="m748.41 1351.7q-1.9664 8.3779-4.4599 11.418-1.0763 1.4248-2.6548 2.5252-0.85497 0.6014-1.9003 1.1759l-3.8725 2.0028q-0.84497 0.5128-0.89904 0.8773-0.1387 0.785 2.3622 1.5312 2.5359 0.721 6.2352 0.9423 7.1114 0.3653 14.05-1.4867 6.1755-1.7451 6.7107-4.3496 0.23787-0.9823-0.09483-2.1939-0.03-0.5055-1.8924-4.6076-0.3124-0.7924-0.5838-1.6829-0.7394-2.4065-1.1127-5.4807l-11.881-0.6714"/> <path d="m803.28 1323.8-11.934 10.14q11.454 9.8881 13.219 15.202 1.0138 2.5836 0.7456 5.5444-0.12481 1.512-0.5697 3.2609l-1.6367 5.4204q-0.2033 0.9554 0.1561 1.2191 1.1303 0.5681 3.9867-2.1964 2.6363-2.646 4.9297-6.6968 2.6964-4.7626 4.8737-10.59 2.1331-5.8224 2.1596-8.4249 0.01835-1.76-1.081-2.5793l-0.84804-0.5489q-2.4235-1.1935-2.9331-1.5227-1.0854-0.6379-2.343-1.5113-2.6936-1.8418-8.6954-6.6947"/> </g> <g> <path d="m735.69 1002.8q-6.553-0.043-19.623 8.4016l10.33 51.796q6.6377 6.4842 8.4599 11.836 0.89521 2.32 1.4311 5.588 1.7965 17.429 2.6949 19.452 1.3857 5.5431 5.5832 12.053l14.459 21.599q2.7806 3.9777 4.6203 5.6764 3.072 4.0175 13.609 3.3442 10.603 0.034 9.9714-10.301-0.22434-2.0693-1.1617-3.9828l-4.8248-6.5155q-1.0736-1.8279-1.9078-5.408-0.7983-3.6688-0.8026-6.309 0.0192-0.9899 0.1557-1.3266 0.6435-1.0559 0.6735-1.662 0.10106-0.5344 0.01573-2.1123-0.2085-3.0461-1.2502-9.017-8.7046-46.116-13.549-64.982-2.1407-8.337-8.7095-14.329-13.182-12.153-12.757-11.268-3.5916-2.5336-7.4136-2.5326"/> </g> <g fill="#fff"> <path d="m776.81 1162.4-26.355 7.0001-11.669-4.2669-11.548 3.4345-1.887-3.4245-3.5854 9.2315q-0.80682-8.9867-2.1287-2.7526-0.96524 4.3827-0.83148 7.3217 0.19804 2.2793 2.9657-4.4673 0.24784 5.8186-0.6026 8.0584-0.52426 1.1155-1.3008 1.0363l-2.9701-0.9153 2.5429 19.127q3.6833 35.48 4.6066 42.27 1.5653 12.752 3.2652 23.87 4.0741 27.385 15.906 87.33l20.23-1.8271-3.8118-55.576 31.516 41.997 17.068-15.42q-43.554-54.922-49.416-59.915 3.7907-4.3491 6.571-12.738 1.5475-3.5331 11.45-38.023l1.9006-5.401 3.8098-8.9569q1.26-3.6317 1.7569-6.5675 2.8164-11.821-7.3682-30.208"/> </g> <g fill="#d357ac"> <path d="m774.39 1141.8-22.869 0.3807q5.0773 7.2733 6.0104 10.34 1.3173 3.7669-0.3773 6.0787-1.6036 2.2771-7.0178 4.0427-4.4492 1.5215-16.121 3.4862 5.9747 3.9364 9.858 5.2362 4.2329 1.4886 8.653 1.2435 7.7026-0.106 27.359-9.0677l-5.4902-21.721"/> </g> <g fill="#ff9b77"> <path d="m660.98 984.97q-2.1854 0.11706-1.122 2.1818 0.44184 0.7412 1.2785 1.6502l5.128 5.3946q1.3165 1.5673 1.5172 2.6713 0.16005 0.83153-0.57065 1.6713l-3.7088 2.7009q-0.6317 0.51574-0.8705 1.3417-0.425 1.7704 2.7339 5.435 1.3087 1.5468 4.3054 4.574 4.24-0.24109 5.6353-0.4823 0.4542-0.01405 0.8118 0.3291l17.319 19.344q6.0806 6.4854 10.718 10.572 3.8286 3.378 7.1006 5.3442 1.813 1.2826 10.013 4.8909 1.5308 0.799 2.8231 1.971 1.6774 1.5166 3.4979 4.6792l5.3776 10.819q0.7852 1.3395 1.6118 1.4125 1.2299 0.1354 2.5864-4.6716l-4.681-8.1207q-2.8883-2.7567-4.6608-5.7302-1.7949-2.9436-3.0995-6.4025-1.0578-2.7223-2.1553-7.2107-3.899-17.806-6.4657-28.111-2.9453 5.1763-3.6635 7.7765-0.43115 1.4593-0.62325 2.963l-0.3847 4.7032q-21.008-14.457-30.717-19.885-0.7597-0.59252-1.2302-1.4746l-1.456-4.2432q-0.4448-1.018-1.3587-2.025l-5.1886-5.0055q-5.7259-6.8776-6.1947-7.0281-2.0106-1.8846-4.2744-2.0352"/> </g> <g fill="#d357ac"> <path d="m735.46 1070.6q-3.6839-0.3019-8.469 9.5542-6.619 14.431-7.7496 23.612-0.4228 4.0317 0.984 6.599 0.4479 0.8353 1.4071 1.6943 5.5355 3.6994 6.2387 4.956 1.7573 2.1489 2.2328 5.5195 0.47194 3.0681-0.3789 8.4981-0.0929 1.5802-3.7492 18.43-0.6862 3.5993-0.8494 5.6214-0.514 5.3026 1.7874 5.3016 1.6097 0.0385 4.7773-1.987l11.391-8.1374 4.2659-2.7634q3.5912-2.1077 6.0947-2.6328 3.0244-0.6966 6.0626 0.3331 1.7599 0.2782 8.46 5.2985 1.3974 0.7389 2.4224 0.3055 3.4431-1.767 4.4968-9.5643 0.46527-4.6416-1.3433-7.4861-0.7682-1.8597-6.745-5.9613-0.72277-0.7047-1.0674-1.5302-0.23417-0.5075-0.38567-1.4472-0.254-4.6014-0.8794-6.6687-0.8826-3.3828-2.3692-5.7302-1.1082-1.7083-2.3979-2.2118-0.42883-0.3597-4.0399-0.6344-0.56324-0.1005-1.0982-0.3992-0.92639-0.5387-1.6533-2.0372-0.76066-1.5307-1.5265-4.6795l-3.7474-16.734q-1.6584-3.2295-2.6534-5.0155-5.7682-10.326-9.411-10.101"/> </g> <g fill="#ff9b77"> <path d="m754.74 1142.7q-25.857 11.46-34.669 20.632-8.5612 9.0316-4.013 19.57 3.6298 6.8411 7.6381 5.1955 1.7667-0.9925 2.36-3.3108 0.2536-1.063 0.1054-2.1366 0.08222-0.1967-1.0861-4.1799-0.19035-0.931-0.1065-1.6901 0.1788-1.8505 2.2192-3.3816 2.0395-1.5712 6.8198-3.5579-0.18254-0.1082 18.144-6.7009 4.3932-1.7003 10.234-4.3704l-7.6221-16.02"/> </g> <g fill="#637079" fill-opacity=".21961"> <path d="m739.74 1090.5 7.2584 38.84-0.1882 16.951 9.7992-4.3757q-2.5699-5.1455-3.9609-9.4732-0.54725-1.6562-1.1825-3.9409l-3.2375-12.207q-0.9503-3.4796-1.872-6.4572-1.977-6.501-6.5931-19.273"/> </g> <g fill="#d357ac"> <path d="m774.89 1145.4q-6.0008 8.6313-11.219 12.476-2.5763 1.906-5.8993 3.4048-2.5576 1.2026-8.6844 3.1897 2.188 3.3534 4.0056 4.3789 2.0779 1.2433 4.8198 0.9302 4.8121-0.2853 19.953-8.305l-2.9743-16.067"/> </g> <g fill="#e1e1e1"> <path d="m761.77 1201.3-9.5156 64.036q1.1575 60.938 3.4268 76.478 1.544 12.477 4.7571 12.864 0.1062 0.0322 0.21753 0.0462-0.10052-0.5383-0.18756-1.1012l-5e-4 9e-4 2.754-0.25 4.6e-4 5e-4q0.10336-0.1011 0.209-0.2096l5e-4 1e-3 -3.7987-55.388v1e-3l-0.1619 20.763q-0.00504-18.786-0.14084-23.56 0.87844-18.61 0.11844-29.948l1e-3 2e-4q-6e-4 -2e-4 -1e-3 -5e-4 -0.0427-0.6442-0.0814-1.2711-0.0467-0.7501-0.08654-1.4741-0.72803-13.15 0.30469-23.311 0.78095-8.9249 4.1999-22.243l-2.0077-15.373-0.00775-0.0608v5e-4z"/> </g> <g fill="#ffad8f"> <path d="m716.17 1011.2q-0.0499 0.03185-0.09994 0.0648l0.00879 0.043-1.5e-4 2e-4q-2.9219 5.1409-3.637 7.7298-0.00849 0.02991-0.01755 0.05944v1e-4q-0.07065 0.4313-0.1125 0.8666-0.1654 0.7965-0.3774 1.2595v7.6e-4q-0.06574 0.38634-0.1158 0.77664l-0.3663 4.4796v7e-4q0.0779 0.1091 0.15873 0.2224v4e-4q-0.02447 1.3849-0.19409 2.7219-0.11804 1.1707-0.80474 4.0459-0.10663 0.5708-0.02765 0.8849 0.0379 0.2614 0.38909 0.5645 1.6981 0.9633 1.8211 1.193 0.42545 0.4191 0.62415 1.0114 0.1677 0.4695 0.1961 1.3378-0.1817 4.7989-0.00433 5.4259 0.19843 1.7968 0.99403 3.0013 0.71227 1.0843 2.1498 2.1165l5.6999 3.5076q0.93166 0.7895 1.1497 1.6594l2e-4 6e-4q0.24904 0.2036 0.48977 0.4222 0.38293 0.3465 0.77398 0.7796l-3e-4 1e-3 1.5327 7.6836q4.486 4.3814 6.7721 8.2469h-1e-4q-1.3348 0.9023-2.7913 2.9298v1e-3q4.3484-0.4122 7.5088-2.6958 3.1521-2.4174 2.1779-5.9911-0.55964-2.2407-2.529-5.1885-1.4772-2.3151-6.2667-8.0495l-15.102-41.114z"/> </g> </g> </svg>